<svg xmlns="http://www.w3.org/2000/svg" xmlns:xlink="http://www.w3.org/1999/xlink" width="149.996" height="237.613" viewBox="0 0 149.996 237.613">
  <defs>
    <linearGradient id="linear-gradient" x1="0.267" y1="0.571" x2="-0.239" y2="0.24" gradientUnits="objectBoundingBox">
      <stop offset="0" stop-color="#013041"/>
      <stop offset="0.805" stop-color="#298eb5"/>
      <stop offset="1" stop-color="#2e9bc4"/>
    </linearGradient>
    <linearGradient id="linear-gradient-2" x1="0.111" y1="0.3" x2="-0.168" y2="0.942" gradientUnits="objectBoundingBox">
      <stop offset="0" stop-color="#2e9ac4"/>
      <stop offset="0.519" stop-color="#10546e"/>
      <stop offset="0.924" stop-color="#013041"/>
      <stop offset="1" stop-color="#013041"/>
    </linearGradient>
  </defs>
  <g id="Logo_DMS" transform="translate(-133.84 -286.027)">
    <path id="Path_4767" data-name="Path 4767" d="M140.3,517.181a22.056,22.056,0,0,0,31.191,0l81.153-81.156,31.191-31.191-31.191-31.191-81.153-81.156a22.056,22.056,0,0,0-31.191,0h0a22.054,22.054,0,0,0,0,31.193L179.82,363.2a58.883,58.883,0,0,1,0,83.271L140.3,485.987a22.054,22.054,0,0,0,0,31.193Z" transform="translate(0 0)" fill="url(#linear-gradient)"/>
    <path id="Path_4768" data-name="Path 4768" d="M184.787,436.83c-.431.431-.746.964-1.135,1.437-.309.374-.629.741-.948,1.107-.922,1.063-1.873,2.11-2.884,3.123L140.3,482.014a22.055,22.055,0,0,0,31.191,31.191l81.153-81.153,31.191-31.191L252.646,369.67l-81.153-81.156C202.112,319.136,230.785,390.832,184.787,436.83Z" transform="translate(0 3.973)" fill="url(#linear-gradient-2)"/>
  </g>
</svg>
