<svg width="764" height="764" viewBox="0 0 764 764" fill="none" xmlns="http://www.w3.org/2000/svg">
<path d="M764 584.304H0V584.686H764V584.304Z" fill="#EBEBEB"/>
<path d="M687.449 608.899H636.838V609.281H687.449V608.899Z" fill="#EBEBEB"/>
<path d="M506.104 613.046H492.821V613.428H506.104V613.046Z" fill="#EBEBEB"/>
<path d="M635.309 594.71H605.983V595.092H635.309V594.71Z" fill="#EBEBEB"/>
<path d="M146.156 597.278H80.1573V597.66H146.156V597.278Z" fill="#EBEBEB"/>
<path d="M169.438 597.278H159.762V597.66H169.438V597.278Z" fill="#EBEBEB"/>
<path d="M344.025 603.73H200.888V604.112H344.025V603.73Z" fill="#EBEBEB"/>
<path d="M362.157 516.158H67.1021C62.2935 516.158 58.3803 512.245 58.3803 507.437V92.6885C58.3803 87.8799 62.2935 83.9667 67.1021 83.9667H362.157C366.965 83.9667 370.878 87.8799 370.878 92.6885V507.437C370.878 512.245 366.965 516.158 362.157 516.158ZM67.1021 84.3502C62.5029 84.3502 58.7623 88.0907 58.7623 92.69V507.438C58.7623 512.037 62.5029 515.778 67.1021 515.778H362.157C366.755 515.778 370.496 512.037 370.496 507.438V92.6885C370.496 88.0907 366.755 84.3487 362.157 84.3487L67.1021 84.3502Z" fill="#EBEBEB"/>
<path d="M692.658 516.158H397.604C392.795 516.158 388.884 512.245 388.884 507.437V92.6885C388.884 87.8799 392.797 83.9667 397.604 83.9667H692.658C697.468 83.9667 701.379 87.8799 701.379 92.6885V507.437C701.381 512.245 697.468 516.158 692.658 516.158ZM397.604 84.3502C393.006 84.3502 389.266 88.0907 389.266 92.69V507.438C389.266 512.037 393.006 515.778 397.604 515.778H692.658C697.257 515.778 700.997 512.037 700.997 507.438V92.6885C700.997 88.0907 697.257 84.3487 692.658 84.3487L397.604 84.3502Z" fill="#EBEBEB"/>
<path d="M102.065 584.304H309.413L309.413 146.092H102.065L102.065 584.304Z" fill="#E6E6E6"/>
<path d="M97.458 584.304H304.806L304.806 146.092H97.458L97.458 584.304Z" fill="#F5F5F5"/>
<path d="M296.535 575.014L296.535 155.384L105.729 155.384L105.729 575.014H296.535Z" fill="#FAFAFA"/>
<path d="M252.591 575.014L204.254 155.384H149.674L198.009 575.014H252.591Z" fill="white"/>
<path d="M109.212 575.013L109.212 155.383H105.728L105.728 575.013H109.212Z" fill="#E6E6E6"/>
<path d="M100.879 204.203L301.385 204.203V191.73L100.879 191.73V204.203Z" fill="#F5F5F5"/>
<path d="M419.018 584.305L419.018 330.046H335.301L335.301 584.305H419.018Z" fill="#F0F0F0"/>
<path d="M414.422 412.003V337.477H339.896V412.003H414.422Z" fill="#F5F5F5"/>
<path d="M414.423 493.221V418.695H339.896V493.221H414.423Z" fill="#F5F5F5"/>
<path d="M414.422 574.438V499.911H339.895V574.438H414.422Z" fill="#F5F5F5"/>
<path d="M393.654 336.49H360.663C360.663 340.758 364.122 344.217 368.39 344.217H385.925C390.195 344.219 393.654 340.758 393.654 336.49Z" fill="#E6E6E6"/>
<path d="M393.654 417.708H360.663C360.663 421.976 364.122 425.435 368.39 425.435H385.925C390.195 425.435 393.654 421.976 393.654 417.708Z" fill="#E6E6E6"/>
<path d="M393.654 498.924H360.663C360.663 503.192 364.122 506.651 368.39 506.651H385.925C390.195 506.651 393.654 503.192 393.654 498.924Z" fill="#E6E6E6"/>
<path d="M460.832 584.304L460.832 330.045H419.019L419.019 584.304H460.832Z" fill="#F5F5F5"/>
<path d="M642.506 578.057H665.718V386.637H642.506V578.057Z" fill="#F0F0F0"/>
<path d="M439.629 584.305H662.502V578.057H439.629V584.305Z" fill="#F0F0F0"/>
<path d="M642.506 386.637H436.412V578.058H642.506V386.637Z" fill="#FAFAFA"/>
<path d="M476.762 498.493H602.156C614.465 498.493 624.478 488.479 624.478 476.169C624.478 463.86 614.464 453.845 602.156 453.845H476.762C464.452 453.845 454.439 463.86 454.439 476.169C454.439 488.479 464.454 498.493 476.762 498.493ZM602.157 455.346C613.64 455.346 622.982 464.688 622.982 476.169C622.982 487.652 613.64 496.993 602.157 496.993H476.764C465.281 496.993 455.938 487.651 455.938 476.169C455.938 464.686 465.281 455.346 476.764 455.346H602.157Z" fill="#F0F0F0"/>
<path d="M476.762 554.03H602.156C614.465 554.03 624.478 544.015 624.478 531.706C624.478 519.396 614.464 509.382 602.156 509.382H476.762C464.452 509.382 454.439 519.396 454.439 531.706C454.439 544.015 464.454 554.03 476.762 554.03ZM602.157 510.882C613.64 510.882 622.982 520.224 622.982 531.706C622.982 543.189 613.64 552.529 602.157 552.529H476.764C465.281 552.529 455.938 543.187 455.938 531.706C455.938 520.223 465.281 510.882 476.764 510.882H602.157Z" fill="#F0F0F0"/>
<path d="M520.538 471.354H558.38C560.941 471.354 563.037 469.258 563.037 466.697C563.037 464.135 560.941 462.04 558.38 462.04H520.538C517.977 462.04 515.88 464.136 515.88 466.697C515.88 469.258 517.977 471.354 520.538 471.354Z" fill="#EBEBEB"/>
<path d="M476.762 442.957H602.156C614.465 442.957 624.478 432.942 624.478 420.632C624.478 408.323 614.464 398.308 602.156 398.308H476.762C464.452 398.308 454.439 408.323 454.439 420.632C454.439 432.94 464.454 442.957 476.762 442.957ZM602.157 399.807C613.64 399.807 622.982 409.15 622.982 420.631C622.982 432.114 613.64 441.454 602.157 441.454H476.764C465.281 441.454 455.938 432.112 455.938 420.631C455.938 409.148 465.281 399.807 476.764 399.807H602.157Z" fill="#F0F0F0"/>
<path d="M520.538 415.818H558.38C560.941 415.818 563.037 413.721 563.037 411.16C563.037 408.599 560.941 406.503 558.38 406.503H520.538C517.977 406.503 515.88 408.599 515.88 411.16C515.88 413.721 517.977 415.818 520.538 415.818Z" fill="#EBEBEB"/>
<path d="M520.538 526.891H558.38C560.941 526.891 563.037 524.795 563.037 522.234C563.037 519.673 560.941 517.576 558.38 517.576H520.538C517.977 517.576 515.88 519.673 515.88 522.234C515.88 524.796 517.977 526.891 520.538 526.891Z" fill="#EBEBEB"/>
<path d="M432.175 386.637H642.507V376.906H432.175V386.637Z" fill="#F0F0F0"/>
<path d="M670.265 376.907H642.506V386.638H670.265V376.907Z" fill="#E6E6E6"/>
<path d="M492.054 223.681C496.741 226.032 509.454 223.507 505.216 232.109C503.224 236.152 499.981 240.471 496.528 244.731C491.794 250.569 492.688 256.903 498.278 259.202C499.635 259.76 500.742 260.454 501.369 261.351C503.944 265.041 497.862 269.992 494.876 273.688C491.992 277.259 490.687 281.022 492.893 283.774C495.329 286.81 500.406 285.695 504.436 286.612C514.134 288.816 504.161 302.188 505.19 309.059C505.895 313.763 509.709 315.074 514.892 315.738C519.118 316.281 524.761 316.66 524.996 320.993C525.2 324.743 520.316 328.994 519.036 332.936C517.79 336.767 518.215 340.489 519.975 343.323C521.548 345.857 524.145 347.571 527.583 348.302C532.386 349.322 539.65 348.263 539.995 353.682C540.15 356.102 538.464 358.243 539.636 360.471C540.625 362.351 542.872 363.302 545.271 363.783C549.128 364.556 554.692 364.347 559.114 363.537C564.75 362.504 573.073 357.537 570.016 352.746C569.159 351.403 567.507 350.621 565.656 350.244C564.304 349.967 560.367 350.395 559.859 349.481C559.352 348.564 560.71 345.044 560.768 343.762C560.935 340.079 560.275 336.618 559.126 333.425C557.566 329.087 555.099 325.191 551.849 321.898C550.517 320.547 548.379 319.554 548.107 317.584C547.848 315.705 549.075 313.437 550.445 311.513C552.604 308.479 555.945 305.579 557.155 302.329C559.056 297.224 554.45 295.604 550.189 294.444C546.333 293.396 541.262 292.047 542.57 287.368C543.516 283.988 547.774 281.222 549.05 277.928C550.762 273.506 546.589 273.333 543.595 271.753C539.713 269.704 538.73 266.046 540.14 261.409C542.464 253.763 556.479 242.973 549.304 238.003C547.482 236.741 545.794 236.316 544.697 234.42C543.525 232.392 543.354 229.866 541.832 228.025C539.416 225.105 534.424 224.614 531.814 221.902C526.463 216.342 538.024 206.479 527.472 204.132C525.061 203.595 522.923 203.088 521.308 201.581C520.342 200.681 519.56 196.321 518.469 196.016C513.63 194.667 504.896 204.063 502.153 206.963C498.814 210.488 486.457 220.872 492.054 223.681Z" fill="#E0E0E0"/>
<path d="M575.121 353.283C572.244 347.962 559.676 342.651 568.019 336.475C571.941 333.572 577.113 331.165 582.442 328.948C589.744 325.909 592.345 318.869 588.644 313.041C587.745 311.627 587.139 310.23 587.067 308.92C586.77 303.542 594.786 302.251 599.398 300.319C603.855 298.454 607.021 295.411 606.546 291.223C606.022 286.601 600.944 284.589 597.879 281.147C590.503 272.864 606.459 265.366 609.227 257.691C611.122 252.438 608.46 248.726 604.243 244.827C600.803 241.646 596.029 237.752 598.14 233.168C599.968 229.203 606.552 227.883 609.793 224.642C612.942 221.493 614.56 217.418 614.523 213.42C614.491 209.849 613.118 206.48 610.474 203.595C606.784 199.566 599.807 196.139 602.403 190.377C603.563 187.804 606.196 186.656 606.355 183.647C606.489 181.108 605.015 178.736 603.155 176.755C600.165 173.567 595.145 170.326 590.81 168.407C585.284 165.962 575.281 165.88 575.416 172.684C575.454 174.591 576.493 176.418 577.923 177.956C578.968 179.079 582.672 181.086 582.629 182.338C582.587 183.591 579.503 186.352 578.765 187.629C576.647 191.298 575.378 195.249 574.681 199.236C573.737 204.647 573.825 210.169 574.931 215.56C575.385 217.771 576.737 220.115 575.923 222.301C575.145 224.388 572.85 225.945 570.612 227.067C567.084 228.833 562.582 229.729 559.775 232.305C555.365 236.351 558.562 240.871 561.702 244.706C564.543 248.175 568.295 252.707 564.636 256.686C561.992 259.56 556.754 259.746 553.865 262.327C549.987 265.793 553.576 268.561 555.373 272.039C557.703 276.55 556.611 280.905 552.884 284.778C546.741 291.164 528.601 293.506 532.27 303.053C533.202 305.476 534.464 306.962 534.416 309.585C534.365 312.391 533.164 315.083 533.523 317.914C534.091 322.407 538.233 326.01 539.085 330.407C540.829 339.425 525.349 342.344 533.405 351.304C535.245 353.35 536.86 355.199 537.479 357.745C537.85 359.267 536.206 364.217 537.005 365.207C540.551 369.596 553.287 365.4 557.26 364.133C562.095 362.593 578.556 359.636 575.121 353.283Z" fill="#F5F5F5"/>
<path d="M607.333 341.271C607.333 341.271 605.811 376.907 547.469 376.907C489.127 376.907 487.605 341.271 487.605 341.271H607.333Z" fill="#F0F0F0"/>
<path d="M382 653.313C545.621 653.313 678.262 645.567 678.262 636.012C678.262 626.456 545.621 618.71 382 618.71C218.379 618.71 85.7376 626.456 85.7376 636.012C85.7376 645.567 218.379 653.313 382 653.313Z" fill="#F5F5F5"/>
<g opacity="0.2">
<path d="M551.194 623.219L453.876 443.352L356.557 623.219H551.194Z" fill="#043648"/>
<path d="M551.194 318.924L453.876 498.791L356.557 318.924H551.194Z" fill="#043648"/>
</g>
<path d="M471.701 425.114L457.462 451.434C455.92 454.284 451.831 454.284 450.289 451.434L436.048 425.114C430.43 414.731 437.949 402.115 449.755 402.115H457.995C469.8 402.115 477.32 414.73 471.701 425.114Z" fill="url(#paint0_linear_17_367)"/>
<path d="M455.426 577.813L499.603 595.992C503.733 597.693 502.518 603.84 498.05 603.84H409.7C405.233 603.84 404.017 597.691 408.147 595.992L452.322 577.813C453.318 577.404 454.433 577.404 455.426 577.813Z" fill="url(#paint1_linear_17_367)"/>
<path d="M453.876 543.207C457.004 543.207 459.54 540.671 459.54 537.543C459.54 534.415 457.004 531.879 453.876 531.879C450.747 531.879 448.211 534.415 448.211 537.543C448.211 540.671 450.747 543.207 453.876 543.207Z" fill="url(#paint2_linear_17_367)"/>
<path d="M453.876 481.259C455.488 481.259 456.796 479.952 456.796 478.339C456.796 476.726 455.488 475.419 453.876 475.419C452.263 475.419 450.956 476.726 450.956 478.339C450.956 479.952 452.263 481.259 453.876 481.259Z" fill="url(#paint3_linear_17_367)"/>
<path d="M453.876 509.889C455.709 509.889 457.196 508.402 457.196 506.569C457.196 504.735 455.709 503.248 453.876 503.248C452.042 503.248 450.555 504.735 450.555 506.569C450.555 508.402 452.042 509.889 453.876 509.889Z" fill="url(#paint4_linear_17_367)"/>
<path d="M550.7 614.354H357.051C352.175 614.354 348.187 618.343 348.187 623.219C348.187 628.095 352.176 632.085 357.051 632.085H550.7C555.576 632.085 559.566 628.095 559.566 623.219C559.566 618.343 555.576 614.354 550.7 614.354Z" fill="#043648"/>
<path d="M550.7 310.06H357.051C352.175 310.06 348.187 314.05 348.187 318.926C348.187 323.802 352.176 327.79 357.051 327.79H550.7C555.576 327.79 559.566 323.8 559.566 318.926C559.566 314.048 555.576 310.06 550.7 310.06Z" fill="#043648"/>
<path d="M297.392 619.874L286.616 616.377L293.315 590.971L304.089 594.468L297.392 619.874Z" fill="#FF8B7B"/>
<path d="M286.456 614.947L298.56 618.875C299.001 619.019 299.234 619.431 299.121 619.87L296.6 629.638C296.339 630.651 295.101 631.289 294.093 630.942C289.901 629.501 287.97 628.601 282.646 626.873C279.372 625.809 268.577 623.021 264.055 621.554C259.632 620.119 261.112 615.656 263.161 615.873C272.345 616.846 280.57 616.409 284.387 615.006C285.074 614.754 285.812 614.737 286.456 614.947Z" fill="#263238"/>
<path opacity="0.2" d="M304.09 594.476L293.31 590.977L289.863 604.075L300.642 607.573L304.09 594.476Z" fill="black"/>
<path d="M333.527 337.263C333.527 337.263 314.196 426.726 309.663 458.892C304.698 494.117 286.048 599.884 286.048 599.884L306.046 605.409C306.046 605.409 333.759 502.83 341.855 468.587C350.641 431.423 374.012 337.263 374.012 337.263H333.527Z" fill="#298EB5"/>
<path opacity="0.3" d="M357.431 366.598C349.807 383.925 346.017 421.667 348.981 438.949C354.391 416.716 360.9 390.282 365.927 369.944C364.232 364.046 361.419 357.537 357.431 366.598Z" fill="black"/>
<path d="M306.55 605.803L285.131 599.902L285.545 591.177L309.661 599.517L306.55 605.803Z" fill="#00729E"/>
<path d="M282.028 615.584C283.022 615.906 284.19 616.059 285.024 616.131C285.128 616.14 285.227 616.087 285.278 615.997C285.328 615.905 285.319 615.793 285.256 615.709C284.99 615.358 282.616 612.283 281.132 612.374C280.788 612.394 280.506 612.574 280.316 612.895C280.003 613.423 279.96 613.917 280.188 614.358C280.48 614.922 281.193 615.313 282.028 615.584ZM284.452 615.543C282.4 615.301 281.001 614.78 280.66 614.117C280.519 613.842 280.556 613.53 280.773 613.162C280.874 612.992 280.998 612.908 281.166 612.899C281.962 612.852 283.461 614.342 284.452 615.543Z" fill="#263238"/>
<path d="M284.966 616.119C285.004 616.131 285.047 616.135 285.09 616.128C285.18 616.113 285.255 616.054 285.29 615.969C285.343 615.841 286.59 612.821 285.843 611.42C285.641 611.043 285.322 610.809 284.892 610.723C284.378 610.622 283.965 610.787 283.736 611.188C283.106 612.282 283.983 615.052 284.848 616.041C284.88 616.079 284.92 616.105 284.966 616.119ZM284.911 611.273C285.119 611.341 285.273 611.47 285.378 611.669C285.825 612.505 285.337 614.308 284.975 615.321C284.295 614.225 283.78 612.17 284.194 611.452C284.272 611.315 284.413 611.168 284.792 611.243C284.833 611.25 284.873 611.261 284.911 611.273Z" fill="#263238"/>
<path d="M354.097 252.326C353.51 253.692 353.032 254.728 352.488 255.896C351.953 257.026 351.383 258.13 350.818 259.233C349.68 261.435 348.494 263.603 347.258 265.751C344.752 270.027 342.053 274.216 339.004 278.244C335.98 282.287 332.653 286.199 328.836 289.852C325.048 293.52 320.71 296.921 315.579 299.65L315.196 299.855C314.579 300.183 313.9 300.422 313.248 300.565C309.567 301.352 305.831 301.053 302.749 300.144C299.635 299.244 297.031 297.89 294.737 296.424C290.173 293.46 286.763 289.949 283.669 286.396C280.626 282.798 277.992 279.065 275.627 275.219C273.261 271.336 271.173 267.504 269.308 263.238C268.214 260.733 269.357 257.815 271.863 256.721C273.937 255.815 276.294 256.443 277.665 258.108L277.815 258.293C280.339 261.364 283.073 264.608 285.825 267.574C288.587 270.566 291.428 273.428 294.357 275.949C297.245 278.487 300.315 280.677 303.128 282.061C304.526 282.743 305.855 283.172 306.894 283.307C307.95 283.433 308.609 283.334 309.096 283.12L306.764 284.034C309.718 282.119 312.604 279.513 315.339 276.547C318.059 273.566 320.628 270.233 323.053 266.729C325.464 263.215 327.751 259.526 329.915 255.748C331.005 253.862 332.059 251.947 333.063 250.016L334.539 247.117C335.012 246.193 335.54 245.128 335.9 244.367L335.995 244.165C338.339 239.207 344.26 237.088 349.218 239.433C354.059 241.722 356.186 247.441 354.097 252.326Z" fill="#263238"/>
<path opacity="0.3" d="M329.119 273.072C333.917 260.329 344.109 260.115 348.525 263.491C348.204 264.087 347.868 264.683 347.531 265.279C345.148 269.42 342.535 273.454 339.662 277.366C336.79 281.262 333.642 285.067 330.082 288.642C328.981 289.727 327.851 290.797 326.674 291.836C326.43 285.831 326.888 279.031 329.119 273.072Z" fill="black"/>
<path d="M268.893 264.029L258.965 264.382L261.448 253.778C261.448 253.778 267.357 254.019 271.574 255.249C274.131 255.995 275.174 259.066 273.72 261.296L273.714 261.305C272.647 262.943 270.849 263.959 268.893 264.029Z" fill="#FF8B7B"/>
<path d="M274.488 255.046C273.669 254.392 272.597 253.772 271.212 253.356C270.375 257.691 265.154 265.022 265.154 265.022H269.29C270.373 265.022 271.402 264.541 272.097 263.71L274.994 260.24C276.304 258.669 276.088 256.322 274.488 255.046Z" fill="#033445"/>
<path d="M251.382 259.505L254.175 252.013L261.448 253.778L258.965 264.382L251.382 259.505Z" fill="#FF8B7B"/>
<path d="M376.27 624.831H364.943L364.552 598.597H375.879L376.27 624.831Z" fill="#FF8B7B"/>
<path d="M364.349 623.519H377.075C377.538 623.519 377.888 623.841 377.916 624.292L378.533 634.361C378.597 635.407 377.618 636.394 376.55 636.375C372.118 636.299 370.002 636.039 364.405 636.039C360.962 636.039 349.452 636.397 344.697 636.397C340.047 636.397 340.078 631.695 342.093 631.269C351.128 629.36 359.199 626.726 362.397 624.214C362.973 623.763 363.672 623.519 364.349 623.519Z" fill="#263238"/>
<path opacity="0.2" d="M375.882 598.605H364.549L364.757 612.128H376.09L375.882 598.605Z" fill="black"/>
<path d="M355.627 337.263C355.627 337.263 351.301 435.683 353.138 468.117C355.15 503.632 359.375 608.862 359.375 608.862H380.124C380.124 608.862 385.354 506.5 386.604 471.336C387.961 433.171 394.112 337.263 394.112 337.263H355.627Z" fill="#298EB5"/>
<path d="M380.958 608.862H358.539L356.831 600.526L381.575 601.756L380.958 608.862Z" fill="#00729E"/>
<path d="M360.333 625.493C361.38 625.493 362.536 625.278 363.352 625.088C363.453 625.065 363.533 624.984 363.551 624.882C363.571 624.779 363.528 624.676 363.442 624.616C363.08 624.364 359.875 622.173 358.49 622.715C358.169 622.84 357.957 623.099 357.876 623.462C357.741 624.061 357.853 624.544 358.206 624.896C358.657 625.34 359.456 625.493 360.333 625.493ZM362.627 624.705C360.6 625.108 359.108 625.045 358.579 624.52C358.359 624.303 358.298 623.994 358.391 623.577C358.434 623.384 358.527 623.267 358.683 623.206C359.427 622.914 361.312 623.869 362.627 624.705Z" fill="#263238"/>
<path d="M363.293 625.094C363.334 625.094 363.375 625.085 363.413 625.065C363.494 625.024 363.548 624.943 363.556 624.853C363.566 624.715 363.821 621.456 362.678 620.356C362.37 620.059 361.994 619.936 361.56 619.988C361.039 620.05 360.698 620.334 360.603 620.787C360.342 622.023 362.032 624.387 363.16 625.059C363.199 625.082 363.245 625.094 363.293 625.094ZM361.743 620.503C361.963 620.503 362.15 620.579 362.31 620.735C362.993 621.392 363.085 623.258 363.054 624.333C362.069 623.502 360.946 621.705 361.117 620.895C361.149 620.741 361.236 620.558 361.621 620.51C361.664 620.506 361.705 620.503 361.743 620.503Z" fill="#263238"/>
<path d="M399.792 245.913C400.506 241.907 397.766 238.108 393.74 237.518L393.608 237.499C389.956 236.964 385.372 236.414 380.88 236.2C373.148 235.833 361.948 235.589 355.133 236.2C351.176 236.567 347.31 237.224 344.223 237.819C344.183 237.827 344.145 237.835 344.106 237.844C340.173 238.64 337.003 241.548 335.864 245.395C332.169 257.853 327.764 283.277 333.527 337.263H394.112C394.54 331.854 393.333 314.253 394.219 291.836C394.893 274.756 397.932 256.35 399.792 245.913Z" fill="#263238"/>
<path opacity="0.3" d="M399.208 249.25C397.951 256.496 396.401 266.341 395.333 276.704C395.333 276.704 389.807 265.858 388.8 256.579C387.794 247.301 395.697 246.648 399.208 249.25Z" fill="black"/>
<g opacity="0.2">
<path d="M358.573 250.679C358.365 250.679 358.165 250.566 358.064 250.371C357.917 250.089 358.027 249.743 358.308 249.597L377.194 239.804C377.479 239.659 377.822 239.769 377.968 240.049C378.114 240.33 378.003 240.677 377.723 240.822L358.837 250.615C358.751 250.659 358.663 250.679 358.573 250.679Z" fill="white"/>
<path d="M367.224 251.575C367.078 251.575 366.932 251.52 366.819 251.408L356.473 241.112C356.25 240.889 356.249 240.527 356.472 240.303C356.695 240.078 357.057 240.076 357.282 240.301L367.628 250.597C367.851 250.82 367.854 251.182 367.629 251.407C367.519 251.518 367.372 251.575 367.224 251.575Z" fill="white"/>
<path d="M380.872 236.198C373.141 235.832 361.94 235.587 355.141 236.198C355.003 236.214 354.85 236.229 354.713 236.244C354.468 237.253 354.239 239.132 355.37 240.935C356.806 243.227 359.816 244.511 364.339 244.755C364.92 244.786 365.485 244.801 366.035 244.801C378.336 244.801 382.981 237.375 383.18 237.054L383.607 236.366C382.691 236.305 381.789 236.244 380.872 236.198Z" fill="white"/>
</g>
<path d="M356.356 236.11C363.843 234.337 365.157 229.707 364.653 224.619C364.546 223.381 364.332 222.098 364.057 220.83L373.439 213.037L380.33 207.322C378.42 215.619 376.265 230.731 381.873 236.262C381.873 236.262 377.231 243.915 364.417 243.222C353.593 242.637 356.356 236.11 356.356 236.11Z" fill="#FF8B7B"/>
<path opacity="0.2" d="M364.057 220.83C364.332 222.098 364.546 223.381 364.653 224.619C368.152 223.916 372.827 220.188 373.316 216.612C373.5 215.268 373.53 213.969 373.439 213.037L364.057 220.83Z" fill="black"/>
<path d="M359.039 181.068C353.946 184.06 354.757 191.769 353.373 197.239C356.62 197.557 361.722 191.799 361.722 191.799L364.77 183.042L359.039 181.068Z" fill="#263238"/>
<path d="M386.145 196.438C382.891 207.232 381.537 213.694 374.655 218.192C364.304 224.96 351.901 217.242 351.851 205.809C351.805 195.52 357.136 179.598 368.934 177.401C380.558 175.236 389.402 185.644 386.145 196.438Z" fill="#FF8B7B"/>
<path d="M375.975 205.594C383.607 196.73 374.064 192.358 381.873 186.204C373.087 186.618 358.622 185.991 356.041 179.965C353.458 173.937 361.404 165.788 368.017 165.024C375.711 164.135 374.002 173.598 374.002 173.598C374.002 173.598 403.247 171.773 393.963 184.21C400.998 183.785 399.062 195.161 386.83 204.752C383.763 205.855 375.975 205.594 375.975 205.594Z" fill="#263238"/>
<path d="M392.21 184.442C392.21 184.442 398.232 182.659 398.023 177.884C400.2 179.381 400.423 183.933 392.21 184.442Z" fill="#263238"/>
<path d="M387.927 207.7C385.983 210.088 383.287 211.513 380.982 211.932C377.515 212.563 376.698 209.353 378.429 206.225C379.988 203.41 383.67 199.69 386.781 200.477C389.846 201.254 390.15 204.969 387.927 207.7Z" fill="#FF8B7B"/>
<path d="M368.734 196.159C368.525 197.048 367.878 197.674 367.293 197.558C366.708 197.441 366.402 196.625 366.613 195.735C366.822 194.846 367.469 194.22 368.054 194.336C368.639 194.453 368.943 195.269 368.734 196.159Z" fill="#263238"/>
<path d="M358.606 194.135C358.397 195.025 357.751 195.651 357.165 195.535C356.58 195.417 356.275 194.602 356.485 193.712C356.695 192.823 357.341 192.196 357.926 192.313C358.512 192.43 358.816 193.246 358.606 194.135Z" fill="#263238"/>
<path d="M361.722 195.222C361.722 195.222 358.473 199.948 355.645 201.977C356.883 203.763 359.737 203.631 359.737 203.631L361.722 195.222Z" fill="#FF5652"/>
<path d="M362.831 206.757C366.421 207.04 368.602 204.961 368.702 204.864C368.809 204.76 368.81 204.59 368.706 204.485C368.604 204.378 368.433 204.376 368.327 204.48C368.303 204.503 365.82 206.874 361.881 206.083C361.734 206.052 361.594 206.147 361.566 206.294C361.537 206.439 361.63 206.581 361.777 206.609C362.141 206.683 362.492 206.731 362.831 206.757Z" fill="#263238"/>
<path d="M372.644 193.695C372.731 193.703 372.821 193.688 372.908 193.648C373.177 193.524 373.298 193.206 373.174 192.938C371.956 190.27 369.49 189.926 369.388 189.914C369.114 189.851 368.826 190.083 368.787 190.378C368.749 190.671 368.957 190.94 369.25 190.979C369.353 190.994 371.241 191.289 372.198 193.385C372.282 193.567 372.456 193.68 372.644 193.695Z" fill="#263238"/>
<path d="M356.097 188.054C356.261 188.106 356.446 188.08 356.592 187.967C358.519 186.469 360.431 187.047 360.449 187.053C360.732 187.143 361.034 186.986 361.123 186.703C361.212 186.422 361.056 186.121 360.776 186.031L360.773 186.029C360.672 185.997 358.301 185.279 355.935 187.119C355.702 187.301 355.659 187.638 355.841 187.872C355.906 187.961 355.998 188.022 356.097 188.054Z" fill="#263238"/>
<path d="M400.379 241.554L401.656 243.291L402.801 244.916C403.556 245.994 404.246 247.084 404.96 248.17C406.359 250.343 407.664 252.56 408.942 254.788C411.466 259.259 413.793 263.832 415.845 268.543C416.913 270.876 417.841 273.281 418.816 275.657C419.674 278.092 420.613 280.483 421.366 282.96C423.034 287.842 424.235 292.907 425.339 297.975L425.464 298.551C425.933 300.701 425.472 302.857 424.368 304.573C422.448 307.539 420.105 310.329 417.417 312.814C414.751 315.315 411.605 317.39 408.282 318.967C404.938 320.529 401.361 321.501 397.796 321.872C396.012 322.058 394.227 322.08 392.458 321.97C391.57 321.902 390.687 321.798 389.799 321.659C389.354 321.586 388.91 321.496 388.454 321.397L386.917 321.024C386.538 320.932 386.306 320.55 386.398 320.173L388.511 311.315C388.528 311.245 388.914 311.222 389.153 311.164L389.996 310.992C390.567 310.876 391.145 310.737 391.715 310.577C392.858 310.276 393.972 309.872 395.038 309.429C397.168 308.522 399.121 307.402 400.822 306.016C404.269 303.316 406.835 299.72 408.867 295.554L407.897 302.151C406.586 297.832 405.201 293.538 403.508 289.319C401.858 285.094 400.007 280.929 398 276.831C395.987 272.737 393.86 268.685 391.555 264.748C390.421 262.769 389.223 260.831 388.037 258.903L386.219 256.068L385.314 254.689L384.481 253.465L384.176 253.016C381.092 248.483 382.269 242.31 386.801 239.227C391.226 236.214 397.23 237.28 400.379 241.554Z" fill="#263238"/>
<path d="M380.142 320.082L376.843 325.469L391.111 324.893C391.111 324.893 394.846 315.298 389.739 313.784L387.768 314.331C384.59 315.214 381.866 317.269 380.142 320.082Z" fill="#FF8B7B"/>
<path d="M386.002 312.549C385.131 313.135 384.217 313.969 383.401 315.164C387.281 317.269 392.698 324.459 392.698 324.459L393.944 320.515C394.271 319.482 394.123 318.356 393.539 317.442L391.104 313.633C390.004 311.911 387.699 311.41 386.002 312.549Z" fill="#033445"/>
<path d="M378.099 333.747L389.857 332.705L391.113 324.893L376.843 325.47L378.099 333.747Z" fill="#FF8B7B"/>
<path d="M233.871 147.203L233.092 145.889C235.327 144.564 237.679 143.397 240.084 142.416L240.66 143.831C238.325 144.781 236.041 145.916 233.871 147.203Z" fill="#033445"/>
<path d="M211.559 174.114L210.121 173.595C213.737 163.595 220.214 154.979 228.853 148.681L229.755 149.915C221.361 156.033 215.069 164.401 211.559 174.114Z" fill="#033445"/>
<path d="M260.063 238.625C286.036 238.625 307.091 217.569 307.091 191.596C307.091 165.623 286.036 144.567 260.063 144.567C234.089 144.567 213.034 165.623 213.034 191.596C213.034 217.569 234.089 238.625 260.063 238.625Z" fill="#033445"/>
<path opacity="0.6" d="M299.35 191.593C299.35 213.303 281.768 230.885 260.058 230.885C249.776 230.885 240.411 226.936 233.41 220.463C225.632 213.286 220.765 203.004 220.765 191.593C220.765 169.901 238.366 152.3 260.058 152.3C271.556 152.3 281.89 157.239 289.087 165.104C289.105 165.104 289.14 165.122 289.157 165.174C295.489 172.158 299.35 181.416 299.35 191.593Z" fill="white"/>
<path d="M299.35 191.593C299.35 213.303 281.768 230.885 260.058 230.885C249.776 230.885 240.411 226.936 233.41 220.463C226.937 213.462 222.969 204.08 222.969 193.798C222.969 172.106 240.57 154.505 262.261 154.505C272.649 154.505 282.049 158.509 289.085 165.105C289.104 165.105 289.139 165.123 289.156 165.175C295.489 172.158 299.35 181.416 299.35 191.593Z" fill="white"/>
<path d="M260.063 193.888C259.476 193.888 258.889 193.665 258.441 193.217L239.28 174.056C238.385 173.162 238.385 171.711 239.28 170.815C240.176 169.92 241.626 169.92 242.521 170.815L260.061 188.355L270.193 178.223C271.089 177.327 272.539 177.327 273.434 178.223C274.329 179.117 274.329 180.57 273.434 181.464L261.682 193.216C261.236 193.663 260.649 193.888 260.063 193.888Z" fill="#263238"/>
<defs>
<linearGradient id="paint0_linear_17_367" x1="453.875" y1="402.115" x2="453.875" y2="453.571" gradientUnits="userSpaceOnUse">
<stop stop-color="#2E9AC4"/>
<stop offset="1" stop-color="#023243"/>
</linearGradient>
<linearGradient id="paint1_linear_17_367" x1="453.875" y1="577.506" x2="453.875" y2="603.84" gradientUnits="userSpaceOnUse">
<stop stop-color="#2E9AC4"/>
<stop offset="1" stop-color="#023243"/>
</linearGradient>
<linearGradient id="paint2_linear_17_367" x1="453.876" y1="531.879" x2="453.876" y2="543.207" gradientUnits="userSpaceOnUse">
<stop stop-color="#2E9AC4"/>
<stop offset="1" stop-color="#023243"/>
</linearGradient>
<linearGradient id="paint3_linear_17_367" x1="453.876" y1="475.419" x2="453.876" y2="481.259" gradientUnits="userSpaceOnUse">
<stop stop-color="#2E9AC4"/>
<stop offset="1" stop-color="#023243"/>
</linearGradient>
<linearGradient id="paint4_linear_17_367" x1="453.876" y1="503.248" x2="453.876" y2="509.889" gradientUnits="userSpaceOnUse">
<stop stop-color="#2E9AC4"/>
<stop offset="1" stop-color="#023243"/>
</linearGradient>
</defs>
</svg>
